<svg width="360" height="800" viewBox="0 0 360 800" fill="none" xmlns="http://www.w3.org/2000/svg">
<path d="M170.5 126.5C222.9 128.5 201.667 43 184.5 0H0V427C12.6667 389.667 50.2 316.9 99 324.5C147.8 332.1 139.333 265.333 129 231C121 195.333 118.1 124.5 170.5 126.5Z" fill="#FF0000" stroke="#FF0000"/>
<path d="M190.253 673.595C137.966 671.624 159.201 757.113 176.354 800.103L360.451 800L360.213 373C347.594 410.34 310.184 483.128 261.486 475.555C212.788 467.983 221.274 534.744 231.604 569.072C239.606 604.734 242.539 675.566 190.253 673.595Z" fill="#312222"/>
</svg>
